Coordinates
version=1
nRows=18
nColumns=63
inDegrees=yes

Units are S.I. units (second, meters, Newtons, ...)
If the header above contains a line with 'inDegrees', this indicates whether rotational values are in degrees (yes) or radians (no).

endheader
time	pelvis_tilt	pelvis_list	pelvis_rotation	pelvis_tx	pelvis_ty	pelvis_tz	hip_flexion_r	hip_adduction_r	hip_rotation_r	knee_angle_r	knee_angle_r_beta	ankle_angle_r	subtalar_angle_r	mtp_angle_r	hip_flexion_l	hip_adduction_l	hip_rotation_l	knee_angle_l	knee_angle_l_beta	ankle_angle_l	subtalar_angle_l	mtp_angle_l	L5_S1_Flex_Ext	L5_S1_Lat_Bending	L5_S1_axial_rotation	L4_L5_Flex_Ext	L4_L5_Lat_Bending	L4_L5_axial_rotation	L3_L4_Flex_Ext	L3_L4_Lat_Bending	L3_L4_axial_rotation	L2_L3_Flex_Ext	L2_L3_Lat_Bending	L2_L3_axial_rotation	L1_L2_Flex_Ext	L1_L2_Lat_Bending	L1_L2_axial_rotation	L1_T12_Flex_Ext	L1_T12_Lat_Bending	L1_T12_axial_rotation	Abs_r3	Abs_r2	Abs_r1	Abs_t1	Abs_t2	neck_flexion	neck_bending	neck_rotation	arm_flex_r	arm_add_r	arm_rot_r	elbow_flex_r	pro_sup_r	wrist_flex_r	wrist_dev_r	arm_flex_l	arm_add_l	arm_rot_l	elbow_flex_l	pro_sup_l	wrist_flex_l	wrist_dev_l
2.566667	-1.680996	4.222502	80.839829	0.267260	0.726881	0.733573	-2.115108	-2.104855	11.871492	5.017232	0.087567	16.671361	0.229733	0.000000	-4.965631	0.845570	-24.915320	4.785906	0.083530	20.466168	14.574437	0.000000	0.271918	-0.686001	-0.363676	0.504980	-0.912382	-0.386405	0.446735	-1.667943	-0.386405	0.310775	-1.667943	-0.318216	0.252503	-1.398894	-0.295486	0.155374	-1.062616	-0.272757	1.942286	-7.760182	-2.022655	0.000000	0.000000	27.679083	-9.094140	-22.979392	57.423298	-31.328063	-42.757065	100.600592	88.132183	-18.229432	2.586915	14.708162	-18.571480	4.563357	89.115364	88.511396	-1.227288	8.679134
2.583333	-1.683812	3.976549	81.558749	0.266239	0.725831	0.733945	-1.900323	-2.090376	10.798868	5.087242	0.088789	17.254924	0.977191	0.000000	-4.517977	0.742547	-24.094123	4.956622	0.086509	20.667991	14.429109	0.000000	0.290057	-0.683667	-0.496017	0.538665	-0.909277	-0.527018	0.476535	-1.662267	-0.527018	0.331506	-1.662267	-0.434015	0.269347	-1.394133	-0.403014	0.165739	-1.059000	-0.372012	2.071848	-7.733773	-2.758696	0.000000	0.000000	27.774561	-8.986171	-22.693257	56.119794	-29.874803	-44.895380	97.773805	87.501345	-18.333039	5.039872	13.563324	-18.838286	5.441377	88.550904	88.680426	-1.531424	8.096805
2.600000	-1.694405	3.708168	82.339983	0.265102	0.724737	0.734415	-1.656374	-2.083557	9.601165	5.163892	0.090127	17.907491	1.849096	0.000000	-4.006825	0.628330	-23.232044	5.177285	0.090361	20.906817	14.291281	0.000000	0.306703	-0.683659	-0.608708	0.569578	-0.909267	-0.646752	0.503882	-1.662249	-0.646752	0.350531	-1.662249	-0.532619	0.284804	-1.394118	-0.494575	0.175250	-1.058988	-0.456531	2.190749	-7.733689	-3.385451	0.000000	0.000000	27.867444	-8.944861	-22.598233	54.823200	-28.707618	-46.885298	94.967567	86.763333	-17.940928	7.745416	12.617705	-19.084736	6.712966	87.364357	88.828286	-1.909144	7.989380
2.616667	-1.718298	3.427422	83.131476	0.263931	0.723657	0.734905	-1.395121	-2.096855	8.271570	5.241833	0.091487	18.599455	2.914748	0.000000	-3.462937	0.519949	-22.372084	5.424532	0.094676	21.164897	14.137049	0.000000	0.322474	-0.686974	-0.695703	0.598866	-0.913675	-0.739184	0.529792	-1.670309	-0.739184	0.368555	-1.670309	-0.608740	0.299449	-1.400877	-0.565259	0.184262	-1.064123	-0.521777	2.303398	-7.771187	-3.869291	0.000000	0.000000	27.953047	-8.953461	-22.706903	53.468534	-27.858472	-48.705229	92.257357	86.075907	-16.977666	10.679151	11.825649	-19.280445	8.236392	85.563639	88.904429	-2.303931	8.216318
2.633333	-1.746417	3.156253	83.862835	0.262835	0.722644	0.735359	-1.135141	-2.115950	7.009234	5.326592	0.092967	19.268590	3.956070	0.000000	-2.926536	0.414501	-21.604279	5.692285	0.099349	21.438654	13.994985	0.000000	0.335965	-0.692104	-0.745795	0.623921	-0.920498	-0.792408	0.551957	-1.682781	-0.792408	0.383975	-1.682781	-0.652571	0.311977	-1.411338	-0.605959	0.191971	-1.072069	-0.559346	2.399766	-7.829218	-4.147890	0.000000	0.000000	28.029009	-9.048615	-22.981347	51.961990	-27.393451	-50.203493	89.695258	85.487250	-16.031593	13.475653	11.195461	-19.434181	10.021984	83.154077	88.778334	-2.745910	8.664249
2.650000	-1.786060	2.904380	84.492257	0.261874	0.721751	0.735712	-0.889731	-2.153519	5.798369	5.409671	0.094417	19.892846	5.024452	0.000000	-2.426599	0.329987	-20.949745	5.958153	0.103989	21.704704	13.865155	0.000000	0.347463	-0.699926	-0.758304	0.645273	-0.930901	-0.805698	0.570846	-1.701799	-0.805698	0.397115	-1.701799	-0.663516	0.322654	-1.427288	-0.616122	0.198540	-1.084185	-0.568728	2.481891	-7.917699	-4.217461	0.000000	0.000000	28.090829	-9.173457	-23.384449	50.269479	-27.253988	-51.439111	87.404591	85.025656	-15.075157	16.129424	10.668552	-19.534636	11.845016	80.162595	88.621479	-3.156049	9.184479
2.666667	-1.842830	2.678412	84.975751	0.261159	0.721028	0.735886	-0.664448	-2.213375	4.696519	5.490101	0.095820	20.438112	6.096664	0.000000	-1.984736	0.276319	-20.447948	6.212499	0.108429	21.944582	13.740855	0.000000	0.357209	-0.712396	-0.724212	0.663372	-0.947486	-0.769475	0.586858	-1.732119	-0.769475	0.408254	-1.732119	-0.633685	0.331704	-1.452717	-0.588422	0.204109	-1.103501	-0.543159	2.551505	-8.058761	-4.027848	0.000000	0.000000	28.131345	-9.342414	-24.002260	48.318683	-27.408403	-52.496545	85.536720	84.711179	-14.320046	18.646587	10.307302	-19.588086	13.875904	76.576021	88.428951	-3.621537	9.676795
2.683333	-1.935707	2.490401	85.290577	0.260785	0.720510	0.735811	-0.475516	-2.309133	3.826736	5.558856	0.097020	20.866025	7.023780	0.000000	-1.626560	0.276812	-20.121240	6.438371	0.112371	22.135084	13.642137	0.000000	0.365285	-0.732702	-0.648355	0.678371	-0.974494	-0.688877	0.600127	-1.781492	-0.688877	0.417484	-1.781492	-0.567310	0.339204	-1.494126	-0.526788	0.208724	-1.134956	-0.486266	2.609194	-8.288474	-3.605954	0.000000	0.000000	28.152322	-9.520653	-24.823453	46.122458	-27.734125	-53.377074	84.183925	84.567758	-14.002591	20.854171	10.148015	-19.615422	16.327892	72.409475	88.258889	-4.140209	10.072163
2.700000	-2.048403	2.361016	85.412555	0.260799	0.720213	0.735434	-0.352713	-2.425813	3.230938	5.607649	0.097872	21.166154	7.774775	0.000000	-1.386456	0.320339	-19.973842	6.630174	0.115718	22.281227	13.560259	0.000000	0.368540	-0.758821	-0.525040	0.684415	-1.009232	-0.557855	0.605474	-1.844998	-0.557855	0.421204	-1.844998	-0.459410	0.342226	-1.547388	-0.426595	0.210584	-1.175414	-0.393780	2.632443	-8.583938	-2.920113	0.000000	0.000000	28.156123	-9.767633	-25.869400	43.756978	-28.180558	-54.148807	83.429600	84.623750	-13.977074	22.779538	10.260193	-19.567178	19.582152	67.681704	88.069220	-4.695902	10.422571
2.716667	-2.232177	2.279044	85.342107	0.261362	0.720109	0.734694	-0.295430	-2.604503	2.978904	5.605527	0.097835	21.332402	8.275498	0.000000	-1.254367	0.449471	-20.018599	6.779098	0.118318	22.346791	13.509929	0.000000	0.372264	-0.800176	-0.366683	0.691331	-1.064234	-0.389600	0.611593	-1.945548	-0.389600	0.425461	-1.945548	-0.320847	0.345684	-1.631719	-0.297930	0.212712	-1.239473	-0.275012	2.659045	-9.051750	-2.039379	0.000000	0.000000	28.148238	-9.951128	-27.237427	41.304155	-28.561995	-54.890952	83.255039	84.878641	-13.892973	24.352594	10.444227	-19.856014	18.943185	63.469278	92.123528	-5.644343	11.242228
2.733333	-2.445655	2.250637	85.073112	0.262347	0.720228	0.733548	-0.315841	-2.809093	3.128278	5.555218	0.096957	21.354460	8.459812	0.000000	-1.250194	0.634125	-20.231468	6.873001	0.119956	22.326420	13.462995	0.000000	0.376006	-0.848045	-0.184818	0.698280	-1.127900	-0.196369	0.617740	-2.061937	-0.196369	0.429737	-2.061937	-0.161716	0.349159	-1.729334	-0.150165	0.214850	-1.313622	-0.138614	2.685772	-9.593257	-1.027903	0.000000	0.000000	28.139669	-10.121120	-28.836996	38.947844	-28.847413	-55.489006	83.570402	85.198192	-13.545240	25.578682	10.688979	-19.825666	22.079982	58.405685	93.618142	-6.243444	11.609310
2.750000	-2.688669	2.280157	84.679705	0.263657	0.720553	0.731988	-0.437274	-3.037459	3.630839	5.436462	0.094884	21.250528	8.290795	0.000000	-1.368244	0.866858	-20.532679	6.920992	0.120794	22.218279	13.401911	0.000000	0.379889	-0.901508	-0.004638	0.705492	-1.199005	-0.004928	0.624120	-2.191926	-0.004928	0.434175	-2.191926	-0.004058	0.352765	-1.838355	-0.003768	0.217069	-1.396436	-0.003478	2.713509	-10.198037	-0.025794	0.000000	0.000000	28.137490	-10.234171	-30.541447	36.855927	-28.957724	-55.889664	84.283716	85.511410	-12.631305	26.619230	10.887245	-19.533802	28.068643	52.907184	92.877975	-6.528086	11.547005
2.766667	-2.974541	2.350786	84.187943	0.265296	0.721053	0.730050	-0.633855	-3.298831	4.442508	5.262930	0.091855	21.041021	7.813142	0.000000	-1.577631	1.153601	-20.918612	6.936627	0.121067	22.020079	13.324281	0.000000	0.385603	-0.962741	0.172041	0.716104	-1.280446	0.182794	0.633508	-2.340808	0.182794	0.440706	-2.340808	0.150536	0.358071	-1.963221	0.139783	0.220334	-1.491286	0.129031	2.754327	-10.890719	0.956840	0.000000	0.000000	28.141364	-10.280405	-32.377243	35.054322	-28.943532	-56.090377	85.353439	85.666556	-11.170558	27.653546	10.970264	-19.016093	36.954178	47.129896	90.093763	-6.373826	11.125752
2.783333	-3.294415	2.453184	83.643005	0.267176	0.721682	0.727833	-0.893325	-3.583391	5.532993	5.040874	0.087980	20.746602	7.013883	0.000000	-1.857533	1.479606	-21.368179	6.923909	0.120845	21.742215	13.268922	0.000000	0.393747	-1.029853	0.328204	0.731227	-1.369705	0.348717	0.646886	-2.503985	0.348717	0.450013	-2.503985	0.287179	0.365633	-2.100077	0.266666	0.224987	-1.595243	0.246153	2.812493	-11.649906	1.825372	0.000000	0.000000	28.151849	-10.197750	-34.203090	33.629905	-28.788433	-56.015600	86.695968	85.839654	-9.286176	28.585680	10.919252	-18.381124	47.577592	41.439223	85.608967	-5.974223	10.349164
2.800000	-3.634109	2.583893	83.088809	0.269180	0.722413	0.725444	-1.203685	-3.890668	6.613916	4.785215	0.083518	20.440572	6.251862	0.000000	-2.197565	1.836963	-21.786291	6.872744	0.119952	21.392558	13.163490	0.000000	0.402323	-1.099739	0.457706	0.747154	-1.462653	0.486312	0.660976	-2.673905	0.486312	0.459815	-2.673905	0.400492	0.373597	-2.242588	0.371886	0.229887	-1.703496	0.343279	2.873752	-12.440467	2.545622	0.000000	0.000000	28.167376	-10.013901	-35.922044	32.612001	-28.521668	-55.706834	88.289286	86.049163	-7.037235	29.459666	10.747564	-17.688048	59.342913	35.989933	79.731176	-5.463296	9.169748
2.816667	-3.986483	2.731822	82.566266	0.271218	0.723207	0.723019	-1.544808	-4.206016	7.742498	4.510777	0.078728	20.108377	5.371793	0.000000	-2.567419	2.210192	-22.191883	6.798930	0.118664	20.997467	13.085649	0.000000	0.410153	-1.170639	0.556338	0.761695	-1.556949	0.591109	0.673840	-2.846291	0.591109	0.468764	-2.846291	0.486796	0.380868	-2.387166	0.452025	0.234361	-1.813319	0.417253	2.929681	-13.242498	3.094185	0.000000	0.000000	28.187275	-9.741176	-37.454099	31.986801	-28.181126	-55.190856	90.109898	86.248838	-4.679454	30.189286	10.496398	-16.997389	71.773770	30.879806	72.752439	-4.889519	7.626890
2.833333	-4.339875	2.887474	82.107409	0.273190	0.724031	0.720691	-1.898754	-4.518516	8.868857	4.230987	0.073845	19.763560	4.400756	0.000000	-2.941312	2.584014	-22.563753	6.714376	0.117188	20.588782	13.052645	0.000000	0.415909	-1.240045	0.623889	0.772384	-1.649260	0.662882	0.683296	-3.015046	0.662882	0.475342	-3.015046	0.545903	0.386213	-2.528700	0.506910	0.237650	-1.920830	0.467917	2.970793	-14.027638	3.469882	0.000000	0.000000	28.211927	-9.383383	-38.708382	31.731294	-27.813594	-54.500673	92.093545	86.456321	-2.390056	30.539893	10.233289	-16.344281	84.513628	26.143521	64.952444	-4.227969	5.845764
2.850000	-4.676756	3.036042	81.738303	0.275004	0.724846	0.718575	-2.240863	-4.814200	9.869498	3.961222	0.069136	19.430718	3.475793	0.000000	-3.294994	2.939451	-22.871256	6.617027	0.115489	20.179728	13.056836	0.000000	0.418007	-1.305517	0.669580	0.776281	-1.736337	0.711428	0.686744	-3.174234	0.711428	0.477741	-3.174234	0.585882	0.388162	-2.662210	0.544033	0.238849	-2.022246	0.502185	2.985785	-14.768268	3.724001	0.000000	0.000000	28.240593	-9.035148	-39.786172	31.786297	-27.534010	-53.653409	94.191047	86.685691	-0.518322	30.369064	10.055140	-15.733747	97.337326	21.801781	56.611081	-3.608491	3.967499
